<svg width="75" height="69" viewBox="0 0 75 69" fill="none" xmlns="http://www.w3.org/2000/svg">
<path d="M45.8072 17.9819L45.3481 18.0017L45.3292 18.4609L44.6546 34.8333C44.5344 37.7515 47.1418 40.048 50.0245 39.5644L50.0249 39.5643L64.4355 37.1333L64.9137 37.0526L64.8477 36.5722C64.716 35.6139 64.8769 34.6092 65.3796 33.7025C66.6143 31.475 69.426 30.672 71.6644 31.9128C73.9028 33.1535 74.7118 35.9635 73.4771 38.191C72.2423 40.4186 69.4306 41.2215 67.1922 39.9808L67.1921 39.9807L67.192 39.9806L67.1918 39.9806L67.1917 39.9805L67.1916 39.9804L67.1914 39.9803L67.1913 39.9803L67.1912 39.9802L67.191 39.9801L67.1909 39.98L67.1908 39.98L67.1906 39.9799L67.1905 39.9798L67.1904 39.9797L67.1902 39.9797L67.1901 39.9796L67.19 39.9795L67.1898 39.9794L67.1897 39.9794L67.1896 39.9793L67.1894 39.9792L67.1893 39.9791L67.1891 39.9791L67.189 39.979L67.1889 39.9789L67.1887 39.9788L67.1886 39.9788L67.1885 39.9787L67.1883 39.9786L67.1882 39.9785L67.188 39.9784L67.1879 39.9784L67.1878 39.9783L67.1876 39.9782L67.1875 39.9781L67.1873 39.9781L67.1872 39.978L67.1871 39.9779L67.1869 39.9778L67.1868 39.9777L67.1866 39.9777L67.1865 39.9776L67.1864 39.9775L67.1862 39.9774L67.1861 39.9774L67.1859 39.9773L67.1858 39.9772L67.1856 39.9771L67.1855 39.977L67.1854 39.977L67.1852 39.9769L67.1851 39.9768L67.1849 39.9767L67.1848 39.9766L67.1846 39.9766L67.1845 39.9765L67.1844 39.9764L67.1842 39.9763L67.1841 39.9762L67.1839 39.9762L67.1838 39.9761L67.1836 39.976L67.1835 39.9759L67.1833 39.9758L67.1832 39.9758L67.1831 39.9757L67.1829 39.9756L67.1828 39.9755L67.1826 39.9754L67.1825 39.9754L67.1823 39.9753L67.1822 39.9752L67.182 39.9751L67.1819 39.975L67.1817 39.9749L67.1816 39.9749L67.1814 39.9748L67.1813 39.9747L67.1811 39.9746L67.181 39.9745L67.1808 39.9745L67.1807 39.9744L67.1805 39.9743L67.1804 39.9742L67.1802 39.9741L67.1801 39.974L67.1799 39.974L67.1798 39.9739L67.1796 39.9738L67.1795 39.9737L67.1793 39.9736L67.1792 39.9735L67.179 39.9735L67.1789 39.9734L67.1787 39.9733L67.1786 39.9732L67.1784 39.9731L67.1783 39.973L67.1781 39.9729L67.178 39.9729L67.1778 39.9728L67.1777 39.9727L67.1775 39.9726L67.1774 39.9725L67.1772 39.9724L67.1771 39.9724L67.1769 39.9723L67.1768 39.9722L67.1766 39.9721L67.1764 39.972L67.1763 39.9719L67.1761 39.9718L67.176 39.9718L67.1758 39.9717L67.1757 39.9716L67.1755 39.9715L67.1754 39.9714L67.1752 39.9713L67.1751 39.9712L67.1749 39.9712L67.1747 39.9711L67.1746 39.971L67.1744 39.9709L67.1743 39.9708L67.1741 39.9707L67.174 39.9706L67.1738 39.9706L67.1737 39.9705L67.1735 39.9704L67.1733 39.9703L67.1732 39.9702L67.173 39.9701L67.1729 39.97L67.1727 39.97L67.1726 39.9699L67.1724 39.9698L67.1722 39.9697L67.1721 39.9696L67.1719 39.9695L67.1718 39.9694L67.1716 39.9693L67.1715 39.9693L67.1713 39.9692L67.1711 39.9691L67.171 39.969L67.1708 39.9689L67.1707 39.9688L67.1705 39.9687L67.1704 39.9686L67.1702 39.9686L67.17 39.9685L67.1699 39.9684L67.1697 39.9683L67.1696 39.9682L67.1694 39.9681L67.1692 39.968L67.1691 39.9679L67.1689 39.9678L67.1688 39.9678L67.1686 39.9677L67.1684 39.9676L67.1683 39.9675L67.1681 39.9674L67.168 39.9673L67.1678 39.9672L67.1676 39.9671L67.1675 39.967L67.1673 39.967L67.1672 39.9669L67.167 39.9668L67.1668 39.9667L67.1667 39.9666L67.1665 39.9665L67.1664 39.9664L67.1662 39.9663L67.166 39.9662L67.1659 39.9662L67.1657 39.9661L67.1656 39.966L67.1654 39.9659L67.1652 39.9658L67.1651 39.9657L67.1649 39.9656L67.1647 39.9655L67.1646 39.9654L67.1644 39.9654L67.1643 39.9653L67.1641 39.9652L67.1639 39.9651L67.1638 39.965L67.1636 39.9649L67.1635 39.9648L67.1633 39.9647L67.1631 39.9646L67.163 39.9645L67.1628 39.9645L67.1626 39.9644L67.1625 39.9643L67.1623 39.9642L67.1622 39.9641L67.162 39.964L67.1618 39.9639L67.1617 39.9638L67.1615 39.9637L67.1613 39.9636L67.1612 39.9636L67.161 39.9635L67.1609 39.9634L67.1607 39.9633L67.1605 39.9632L67.1604 39.9631L67.1602 39.963L67.16 39.9629L67.1599 39.9628L67.1597 39.9627L67.1595 39.9626L67.1594 39.9626L67.1592 39.9625L67.159 39.9624L67.1589 39.9623L67.1587 39.9622L67.1586 39.9621L67.1584 39.962L67.1582 39.9619L67.1581 39.9618L67.1579 39.9617L67.1577 39.9616L67.1576 39.9616L67.1574 39.9615L67.1572 39.9614L67.1571 39.9613L67.1569 39.9612L67.1568 39.9611L67.1566 39.961L67.1564 39.9609L67.1563 39.9608L67.1561 39.9607L67.1559 39.9607L67.1558 39.9606L67.1556 39.9605L67.1554 39.9604L67.1553 39.9603L67.1551 39.9602L67.155 39.9601L67.1548 39.96L67.1546 39.9599L67.1545 39.9598L67.1543 39.9597L67.1541 39.9596L67.154 39.9596L67.1538 39.9595L67.1536 39.9594L67.1535 39.9593L67.1533 39.9592L67.1531 39.9591L67.153 39.959L67.1528 39.9589L67.1526 39.9588L67.1525 39.9587L67.1523 39.9586L67.1522 39.9586L67.152 39.9585L67.1518 39.9584L67.1517 39.9583L67.1515 39.9582L67.1513 39.9581L67.1512 39.958L67.151 39.9579L67.1508 39.9578L67.1507 39.9577L67.1505 39.9576L67.1504 39.9576L67.1502 39.9575L67.15 39.9574L67.1499 39.9573L67.1497 39.9572L67.1495 39.9571L67.1494 39.957L67.1492 39.9569L67.149 39.9568L67.1489 39.9567L67.1487 39.9566L67.1485 39.9566L67.1484 39.9565L67.1482 39.9564L67.1481 39.9563L67.1479 39.9562L67.1477 39.9561L67.1476 39.956L67.1474 39.9559L67.1472 39.9558L67.1471 39.9557L67.1469 39.9556L67.1467 39.9556L67.1466 39.9555L67.1464 39.9554L67.1463 39.9553L67.1461 39.9552L67.1459 39.9551L67.1458 39.955L67.1456 39.9549L67.1454 39.9548L67.1453 39.9547L67.1451 39.9546L67.1449 39.9546L67.1448 39.9545L67.1446 39.9544L67.1445 39.9543L67.1443 39.9542L67.1441 39.9541L67.144 39.954L67.1438 39.9539L67.1436 39.9538L67.1435 39.9537L67.1433 39.9537L67.1432 39.9536L67.143 39.9535L67.1428 39.9534L67.1427 39.9533L67.1425 39.9532L67.1423 39.9531L67.1422 39.953L67.142 39.9529L67.1419 39.9528L67.1417 39.9528L67.1415 39.9527L67.1414 39.9526L67.1412 39.9525L67.1411 39.9524L67.1409 39.9523L67.1407 39.9522L67.1406 39.9521L67.1404 39.952L67.1402 39.952L67.1401 39.9519L67.1399 39.9518L67.1398 39.9517L67.1396 39.9516L67.1394 39.9515L67.1393 39.9514L67.1391 39.9513L67.139 39.9512L67.1388 39.9511L67.1386 39.9511L67.1385 39.951L67.1383 39.9509L67.1382 39.9508L67.138 39.9507L67.1378 39.9506L67.1377 39.9505L67.1375 39.9504L67.1374 39.9503L67.1372 39.9503L67.137 39.9502L67.1369 39.9501L67.1367 39.95L67.1366 39.9499L67.1364 39.9498L67.1362 39.9497L67.1361 39.9496L67.1359 39.9496L67.1358 39.9495L67.1356 39.9494L67.1354 39.9493L67.1353 39.9492L67.1351 39.9491L67.135 39.949L67.1348 39.9489L67.1347 39.9489L67.1345 39.9488L67.1343 39.9487L67.1342 39.9486L67.134 39.9485L67.1339 39.9484L67.1337 39.9483L67.1336 39.9482L67.1334 39.9482L67.1332 39.9481L67.1331 39.948L67.1329 39.9479L67.1328 39.9478L67.1326 39.9477L67.1325 39.9476L67.1323 39.9475L67.1321 39.9475L67.132 39.9474L67.1318 39.9473L67.1317 39.9472L67.1315 39.9471L67.1314 39.947L67.1312 39.9469L67.1311 39.9469L67.1309 39.9468L67.1307 39.9467L67.1306 39.9466L67.1304 39.9465L67.1303 39.9464L67.1301 39.9463L67.13 39.9463L67.1298 39.9462L67.1297 39.9461L67.1295 39.946L67.1294 39.9459L67.1292 39.9458L67.1291 39.9457L67.1289 39.9457L67.1287 39.9456L67.1286 39.9455L67.1284 39.9454L67.1283 39.9453L67.1281 39.9452L67.128 39.9452L67.1278 39.9451L67.1277 39.945L67.1275 39.9449L67.1274 39.9448L67.1272 39.9447L67.1271 39.9446L67.1269 39.9446L67.1268 39.9445L67.1266 39.9444L67.1265 39.9443L67.1263 39.9442L67.1262 39.9442L67.126 39.9441L67.1259 39.944L67.1257 39.9439L67.1256 39.9438L67.1254 39.9437L67.1253 39.9437L67.1251 39.9436L67.125 39.9435L67.1248 39.9434L67.1247 39.9433L67.1245 39.9432L67.1244 39.9432L67.1242 39.9431L67.1241 39.943L67.1239 39.9429L67.1238 39.9428L67.1236 39.9427L67.1235 39.9427L67.1233 39.9426L67.1232 39.9425L67.1231 39.9424L67.1229 39.9423L67.1228 39.9423L67.1226 39.9422L67.1225 39.9421L67.1223 39.942L67.1222 39.9419L67.122 39.9419L67.1219 39.9418L67.1217 39.9417L67.1216 39.9416L67.1215 39.9415L67.1213 39.9415L67.1212 39.9414L67.121 39.9413L67.1209 39.9412L67.1207 39.9411L67.1206 39.9411L67.1205 39.941L67.1203 39.9409L67.1202 39.9408L67.12 39.9407L67.1199 39.9407L67.1197 39.9406L67.1196 39.9405L67.1195 39.9404L67.1193 39.9404L67.1192 39.9403L67.119 39.9402L67.1189 39.9401L67.1188 39.94L67.1186 39.94L67.1185 39.9399L67.1183 39.9398L67.1182 39.9397L67.1181 39.9397L67.1179 39.9396L67.1178 39.9395L67.1176 39.9394L67.1175 39.9393L67.1174 39.9393L67.1172 39.9392L67.1171 39.9391L67.1169 39.939L67.1168 39.939L67.1167 39.9389L67.1165 39.9388L67.1164 39.9387L67.1163 39.9387L67.1161 39.9386L67.116 39.9385L67.1159 39.9384L67.1157 39.9384L67.1156 39.9383L67.1155 39.9382L67.1153 39.9381L67.1152 39.9381L67.1151 39.938L67.1149 39.9379L67.1148 39.9378L67.1147 39.9378L67.1145 39.9377L67.1144 39.9376L67.1143 39.9375L67.1141 39.9375L67.114 39.9374L67.1139 39.9373L67.1137 39.9373L66.749 39.7351L66.4846 40.0576L45.7825 65.3181C45.7824 65.3182 45.7823 65.3184 45.7822 65.3185C43.4177 68.1929 39.341 68.9658 36.0863 67.1617L4.99787 49.9291C1.73175 48.1186 0.233712 44.2408 1.42269 40.7305L1.42283 40.7301L11.8748 9.78692L12.0083 9.39179L11.6435 9.1896L11.6434 9.18952L11.6432 9.18945L11.6431 9.18938L11.643 9.1893L11.6428 9.18923L11.6427 9.18916L11.6426 9.18908L11.6424 9.18901L11.6423 9.18894L11.6422 9.18886L11.642 9.18879L11.6419 9.18871L11.6418 9.18864L11.6416 9.18856L11.6415 9.18849L11.6414 9.18841L11.6412 9.18834L11.6411 9.18826L11.6409 9.18819L11.6408 9.18811L11.6407 9.18804L11.6405 9.18796L11.6404 9.18789L11.6403 9.18781L11.6401 9.18773L11.64 9.18766L11.6399 9.18758L11.6397 9.1875L11.6396 9.18743L11.6394 9.18735L11.6393 9.18727L11.6392 9.1872L11.639 9.18712L11.6389 9.18704L11.6387 9.18696L11.6386 9.18689L11.6385 9.18681L11.6383 9.18673L11.6382 9.18665L11.638 9.18658L11.6379 9.1865L11.6378 9.18642L11.6376 9.18634L11.6375 9.18626L11.6373 9.18618L11.6372 9.1861L11.637 9.18603L11.6369 9.18595L11.6368 9.18587L11.6366 9.18579L11.6365 9.18571L11.6363 9.18563L11.6362 9.18555L11.636 9.18547L11.6359 9.18539L11.6358 9.18531L11.6356 9.18523L11.6355 9.18515L11.6353 9.18507L11.6352 9.18499L11.635 9.18491L11.6349 9.18483L11.6347 9.18475L11.6346 9.18467L11.6345 9.18459L11.6343 9.18451L11.6342 9.18442L11.634 9.18434L11.6339 9.18426L11.6337 9.18418L11.6336 9.1841L11.6334 9.18402L11.6333 9.18394L11.6331 9.18385L11.633 9.18377L11.6328 9.18369L11.6327 9.18361L11.6325 9.18353L11.6324 9.18344L11.6322 9.18336L11.6321 9.18328L11.6319 9.1832L11.6318 9.18311L11.6316 9.18303L11.6315 9.18295L11.6313 9.18286L11.6312 9.18278L11.631 9.1827L11.6309 9.18262L11.6307 9.18253L11.6306 9.18245L11.6304 9.18237L11.6303 9.18228L11.6301 9.1822L11.63 9.18211L11.6298 9.18203L11.6297 9.18195L11.6295 9.18186L11.6294 9.18178L11.6292 9.18169L11.6291 9.18161L11.6289 9.18152L11.6288 9.18144L11.6286 9.18136L11.6285 9.18127L11.6283 9.18119L11.6282 9.1811L11.628 9.18102L11.6279 9.18093L11.6277 9.18085L11.6276 9.18076L11.6274 9.18068L11.6272 9.18059L11.6271 9.18051L11.6269 9.18042L11.6268 9.18033L11.6266 9.18025L11.6265 9.18016L11.6263 9.18008L11.6262 9.17999L11.626 9.1799L11.6259 9.17982L11.6257 9.17973L11.6255 9.17965L11.6254 9.17956L11.6252 9.17947L11.6251 9.17939L11.6249 9.1793L11.6248 9.17921L11.6246 9.17913L11.6244 9.17904L11.6243 9.17895L11.6241 9.17887L11.624 9.17878L11.6238 9.17869L11.6237 9.17861L11.6235 9.17852L11.6233 9.17843L11.6232 9.17835L11.623 9.17826L11.6229 9.17817L11.6227 9.17808L11.6226 9.178L11.6224 9.17791L11.6222 9.17782L11.6221 9.17773L11.6219 9.17765L11.6218 9.17756L11.6216 9.17747L11.6215 9.17738L11.6213 9.17729L11.6211 9.17721L11.621 9.17712L11.6208 9.17703L11.6207 9.17694L11.6205 9.17685L11.6203 9.17676L11.6202 9.17668L11.62 9.17659L11.6199 9.1765L11.6197 9.17641L11.6195 9.17632L11.6194 9.17623L11.6192 9.17614L11.6191 9.17606L11.6189 9.17597L11.6187 9.17588L11.6186 9.17579L11.6184 9.1757L11.6183 9.17561L11.6181 9.17552L11.6179 9.17543L11.6178 9.17534L11.6176 9.17526L11.6175 9.17517L11.6173 9.17508L11.6171 9.17499L11.617 9.1749L11.6168 9.17481L11.6167 9.17472L11.6165 9.17463L11.6163 9.17454L11.6162 9.17445L11.616 9.17436L11.6158 9.17427L11.6157 9.17418L11.6155 9.17409L11.6154 9.174L11.6152 9.17391L11.615 9.17382L11.6149 9.17373L11.6147 9.17364L11.6145 9.17355L11.6144 9.17346L11.6142 9.17337L11.6141 9.17328L11.6139 9.17319L11.6137 9.1731L11.6136 9.17301L11.6134 9.17292L11.6132 9.17283L11.6131 9.17274L11.6129 9.17265L11.6128 9.17256L11.6126 9.17247L11.6124 9.17238L11.6123 9.17229L11.6121 9.1722L11.6119 9.17211L11.6118 9.17202L11.6116 9.17193L11.6115 9.17184L11.6113 9.17175L11.6111 9.17166L11.611 9.17157L11.6108 9.17148L11.6106 9.17139L11.6105 9.17129L11.6103 9.1712L11.6101 9.17111L11.61 9.17102L11.6098 9.17093L11.6097 9.17084L11.6095 9.17075L11.6093 9.17066L11.6092 9.17057L11.609 9.17048L11.6088 9.17039L11.6087 9.1703L11.6085 9.17021L11.6083 9.17011L11.6082 9.17002L11.608 9.16993L11.6079 9.16984L11.6077 9.16975L11.6075 9.16966L11.6074 9.16957L11.6072 9.16948L11.607 9.16939L11.6069 9.1693L11.6067 9.1692L11.6065 9.16911L11.6064 9.16902L11.6062 9.16893L11.606 9.16884L11.6059 9.16875L11.6057 9.16866L11.6056 9.16857L11.6054 9.16848L11.6052 9.16839L11.6051 9.16829L11.6049 9.1682L11.6047 9.16811L11.6046 9.16802L11.6044 9.16793L11.6042 9.16784L11.6041 9.16775L11.6039 9.16766L11.6037 9.16757L11.6036 9.16747L11.6034 9.16738L11.6033 9.16729L11.6031 9.1672L11.6029 9.16711L11.6028 9.16702L11.6026 9.16693L11.6024 9.16684L11.6023 9.16675L11.6021 9.16666L11.6019 9.16656L11.6018 9.16647L11.6016 9.16638L11.6014 9.16629L11.6013 9.1662L11.6011 9.16611L11.601 9.16602L11.6008 9.16593L11.6006 9.16584L11.6005 9.16575L11.6003 9.16565L11.6001 9.16556L11.6 9.16547L11.5998 9.16538L11.5996 9.16529L11.5995 9.1652L11.5993 9.16511L11.5992 9.16502L11.599 9.16493L11.5988 9.16484L11.5987 9.16475L11.5985 9.16466L11.5983 9.16457L11.5982 9.16447L11.598 9.16438L11.5978 9.16429L11.5977 9.1642L11.5975 9.16411L11.5974 9.16402L11.5972 9.16393L11.597 9.16384L11.5969 9.16375L11.5967 9.16366L11.5965 9.16357L11.5964 9.16348L11.5962 9.16339L11.596 9.1633L11.5959 9.16321L11.5957 9.16312L11.5956 9.16303L11.5954 9.16294L11.5952 9.16285L11.5951 9.16276L11.5949 9.16267L11.5947 9.16258L11.5946 9.16249L11.5944 9.1624L11.5943 9.16231L11.5941 9.16222L11.5939 9.16213L11.5938 9.16204L11.5936 9.16195L11.5934 9.16186L11.5933 9.16177L11.5931 9.16168L11.593 9.16159L11.5928 9.1615L11.5926 9.16141L11.5925 9.16132L11.5923 9.16123L11.5921 9.16114L11.592 9.16105L11.5918 9.16096L11.5917 9.16087L11.5915 9.16078L11.5913 9.16069L11.5912 9.1606L11.591 9.16051L11.5909 9.16042L11.5907 9.16033L11.5905 9.16024L11.5904 9.16016L11.5902 9.16007L11.5901 9.15998L11.5899 9.15989L11.5897 9.1598L11.5896 9.15971L11.5894 9.15962L11.5893 9.15953L11.5891 9.15944L11.5889 9.15936L11.5888 9.15927L11.5886 9.15918L11.5885 9.15909L11.5883 9.159L11.5881 9.15891L11.588 9.15883L11.5878 9.15874L11.5877 9.15865L11.5875 9.15856L11.5873 9.15847L11.5872 9.15838L11.587 9.1583L11.5869 9.15821L11.5867 9.15812L11.5865 9.15803L11.5864 9.15795L11.5862 9.15786L11.5861 9.15777L11.5859 9.15768L11.5858 9.15759L11.5856 9.15751L11.5854 9.15742L11.5853 9.15733L11.5851 9.15725L11.585 9.15716L11.5848 9.15707L11.5847 9.15698L11.5845 9.1569L11.5843 9.15681L11.5842 9.15672L11.584 9.15664L11.5839 9.15655L11.5837 9.15646L11.5836 9.15638L11.5834 9.15629L11.5832 9.1562L11.5831 9.15612L11.5829 9.15603L11.5828 9.15595L11.5826 9.15586L11.5825 9.15577L11.5823 9.15569L11.5822 9.1556L11.582 9.15552L11.5819 9.15543L11.5817 9.15534L11.5815 9.15526L11.5814 9.15517L11.5812 9.15509L11.5811 9.155L11.5809 9.15492L11.5808 9.15483L11.5806 9.15475L11.5805 9.15466L11.5803 9.15458L11.5802 9.15449L11.58 9.15441L11.5799 9.15432L11.5797 9.15424L11.5795 9.15415L11.5794 9.15407L11.5792 9.15398L11.5791 9.1539L11.5789 9.15382L11.5788 9.15373L11.5786 9.15365L11.5785 9.15356L11.5783 9.15348L11.5782 9.1534L11.578 9.15331L11.5779 9.15323L11.5777 9.15315L11.5776 9.15306L11.5774 9.15298L11.5773 9.1529L11.5771 9.15281L11.577 9.15273L11.5768 9.15265L11.5767 9.15256L11.5765 9.15248L11.5764 9.1524L11.5762 9.15232L11.5761 9.15223L11.5759 9.15215L11.5758 9.15207L11.5756 9.15199L11.5755 9.15191L11.5753 9.15182L11.5752 9.15174L11.5751 9.15166L11.5749 9.15158L11.5748 9.1515L11.5746 9.15142L11.5745 9.15133L11.5743 9.15125L11.5742 9.15117L11.574 9.15109L11.5739 9.15101L11.5737 9.15093L11.5736 9.15085L11.5734 9.15077L11.5733 9.15069L11.5732 9.15061L11.573 9.15053L11.5729 9.15045L11.5727 9.15037L11.5726 9.15029L11.5724 9.15021L11.5723 9.15013L11.5721 9.15005L11.572 9.14997L11.5719 9.14989L11.5717 9.14981L11.5716 9.14973L11.5714 9.14965L11.5713 9.14957L11.5711 9.14949L11.571 9.14942L11.5709 9.14934L11.5707 9.14926L11.5706 9.14918L11.5704 9.1491L11.5703 9.14902L11.5702 9.14895L11.57 9.14887L11.5699 9.14879L11.5697 9.14871L11.5696 9.14864L11.5695 9.14856L11.5693 9.14848L11.5692 9.1484L11.569 9.14833L11.5689 9.14825L11.5688 9.14817L11.5686 9.1481L11.5685 9.14802L11.5683 9.14794L11.5682 9.14787L11.5681 9.14779L11.5679 9.14772L11.5678 9.14764L11.5677 9.14757L11.5675 9.14749L11.5674 9.14741L11.5673 9.14734L11.5671 9.14726L11.567 9.14719L11.5669 9.14711L11.5667 9.14704L11.5666 9.14696L11.5664 9.14689L11.5663 9.14682L11.5662 9.14674L11.566 9.14667L11.5659 9.14659L11.5658 9.14652L11.5656 9.14645L11.5655 9.14637L11.5654 9.1463L11.5652 9.14623L11.5651 9.14615L11.565 9.14608C9.32659 7.90532 8.51757 5.09534 9.75231 2.86782C10.987 0.640292 13.7988 -0.162685 16.0372 1.07808C18.2755 2.31884 19.0846 5.12882 17.8498 7.35634C17.3472 8.26309 16.5805 8.9319 15.6981 9.32806L15.2557 9.52666L15.4406 9.97493L21.0155 23.4841L21.0156 23.4845C22.1331 26.1854 25.4624 27.1797 27.8734 25.5314L41.4006 16.2832L41.7799 16.0238L41.5534 15.624C40.7909 14.278 40.7271 12.5823 41.5315 11.1311C42.7663 8.90354 45.578 8.10056 47.8164 9.34132C50.0547 10.5821 50.8638 13.3921 49.629 15.6196C48.8304 17.0603 47.352 17.9153 45.8072 17.9819Z" fill="#F7FF00" stroke="#C4A9A9"/>
</svg>
