<svg width="36" height="36" viewBox="0 0 36 36" fill="none" xmlns="http://www.w3.org/2000/svg">
<path d="M26.5711 7.44609L35.2055 16.0805C35.7117 16.5867 36 17.2828 36 18C36 18.7172 35.7117 19.4133 35.2055 19.9195L26.5711 28.5539C26.1211 29.0039 25.5164 29.25 24.8836 29.25C23.5688 29.25 22.5 28.1812 22.5 26.8664V22.5H13.5C12.2555 22.5 11.25 21.4945 11.25 20.25V15.75C11.25 14.5055 12.2555 13.5 13.5 13.5H22.5V9.13359C22.5 7.81875 23.5688 6.75 24.8836 6.75C25.5164 6.75 26.1211 7.00313 26.5711 7.44609ZM11.25 6.75H6.75C5.50547 6.75 4.5 7.75547 4.5 9V27C4.5 28.2445 5.50547 29.25 6.75 29.25H11.25C12.4945 29.25 13.5 30.2555 13.5 31.5C13.5 32.7445 12.4945 33.75 11.25 33.75H6.75C3.02344 33.75 0 30.7266 0 27V9C0 5.27344 3.02344 2.25 6.75 2.25H11.25C12.4945 2.25 13.5 3.25547 13.5 4.5C13.5 5.74453 12.4945 6.75 11.25 6.75Z" fill="#EBBAF8"/>
</svg>
