<svg width="36" height="36" viewBox="0 0 36 36" fill="none" xmlns="http://www.w3.org/2000/svg">
<path d="M10.95 29.7751V25.0501H21.9375C23.2125 25.0501 24.3 24.6063 25.2 23.7188C26.1 22.8313 26.55 21.7501 26.55 20.4751C26.55 19.2001 26.1 18.1126 25.2 17.2126C24.3 16.3126 23.2125 15.8626 21.9375 15.8626H13.725L16.8375 18.9751L13.5375 22.2751L4.72501 13.5001L13.5375 4.7251L16.8375 8.0251L13.725 11.1376H21.9375C24.5125 11.1376 26.7125 12.0438 28.5375 13.8563C30.3625 15.6688 31.275 17.8626 31.275 20.4376C31.275 23.0126 30.3625 25.2126 28.5375 27.0376C26.7125 28.8626 24.5125 29.7751 21.9375 29.7751H10.95Z" fill="#EBBAF8"/>
</svg>
