<svg width="153" height="85" viewBox="0 0 153 85" fill="none" xmlns="http://www.w3.org/2000/svg">
<g clip-path="url(#clip0_64_28)">
<path d="M27.5893 31.9437L27.5924 31.9456L39.7157 39.4552L40.173 39.7385L40.6689 39.5597L54.0769 34.7245C54.0772 34.7244 54.0775 34.7243 54.0778 34.7242C54.8563 34.4458 55.7117 34.6017 56.3023 35.0832C56.8821 35.5559 57.1302 36.2992 56.9189 37.0083L56.9187 37.0088L53.101 49.847L52.9541 50.3413L53.3198 50.7449L62.705 61.1007C62.7052 61.101 62.7055 61.1013 62.7058 61.1016C63.2 61.6506 63.3283 62.4258 62.9917 63.1201C62.659 63.8066 61.9138 64.2647 61.0708 64.2933C61.07 64.2934 61.0691 64.2934 61.0682 64.2934L46.6286 64.7064L46.1003 64.7215L45.8218 65.1313L38.21 76.3316C38.2095 76.3322 38.2091 76.3328 38.2087 76.3334C37.7633 76.9804 36.9515 77.3397 36.1274 77.2638C35.3143 77.1888 34.6365 76.6978 34.3608 76.0291C34.3606 76.0288 34.3605 76.0285 34.3604 76.0282L29.2122 63.4403L29.0117 62.95L28.4694 62.8191L14.3718 59.4158L14.3713 59.4157C13.5995 59.2298 13.0172 58.6609 12.8501 57.9583C12.6854 57.2658 12.9651 56.5085 13.6232 56.0293C13.6235 56.0291 13.6238 56.0289 13.6241 56.0287L24.9101 47.8589L25.3277 47.5566L25.2874 47.0538L24.2197 33.7259C24.2196 33.7252 24.2196 33.7246 24.2195 33.7239C24.1645 32.9873 24.5664 32.2663 25.3016 31.8791C26.042 31.4892 26.9332 31.5343 27.5893 31.9437Z" fill="#F7FF05" stroke="#F7FF05" stroke-width="2"/>
</g>
<g clip-path="url(#clip1_64_28)">
<path d="M127.003 25.9386L127.003 25.942L128.234 39.2621L128.281 39.7644L128.737 39.9993L141.295 46.4613C141.295 46.4614 141.295 46.4616 141.296 46.4618C142.035 46.845 142.435 47.5549 142.397 48.2656C142.36 48.9589 141.895 49.5948 141.159 49.8908L141.158 49.891L127.818 55.264L127.295 55.4746L127.178 56.003L124.261 69.1731C124.261 69.1733 124.261 69.1736 124.261 69.1738C124.108 69.8532 123.54 70.4293 122.733 70.6287C121.931 70.8268 121.059 70.5837 120.497 69.9965C120.497 69.9962 120.497 69.9958 120.496 69.9955L111.057 60.0192L110.722 59.6644L110.212 59.7232L95.8793 61.3758C95.8787 61.3758 95.8782 61.3759 95.8776 61.376C95.0354 61.4687 94.2071 61.1138 93.749 60.4761C93.2989 59.8494 93.2974 59.0692 93.684 58.4677C93.6843 58.4674 93.6845 58.467 93.6847 58.4667L101.169 46.8954L101.469 46.4315L101.236 45.9562L95.2632 33.8208L95.263 33.8203C94.9363 33.1575 95.0569 32.3991 95.5401 31.8502C96.0187 31.3064 96.8399 31.0207 97.6766 31.1885C97.6769 31.1886 97.6773 31.1887 97.6776 31.1887L111.741 34.0479L112.252 34.1519L112.655 33.807L123.338 24.6626C123.338 24.6622 123.339 24.6618 123.339 24.6614C123.926 24.1636 124.799 23.9877 125.606 24.2703C126.419 24.5549 126.939 25.2232 127.003 25.9386Z" fill="#F7FF05" stroke="#F7FF05" stroke-width="2"/>
</g>
<g clip-path="url(#clip2_64_28)">
<path d="M74.551 5.37L74.553 5.37298L82.2797 16.7313L82.571 17.1595L83.0857 17.1794L97.4907 17.7368C97.491 17.7369 97.4914 17.7369 97.4918 17.7369C98.3553 17.7726 99.0635 18.2463 99.3785 18.8855C99.6837 19.5045 99.5914 20.2525 99.0836 20.8203L99.0832 20.8207L89.871 31.1326L89.5037 31.5438L89.667 32.078L93.6231 45.0203C93.6231 45.0205 93.6232 45.0206 93.6232 45.0208C93.8202 45.6729 93.6103 46.4142 92.9868 46.929C92.3656 47.4419 91.4566 47.5889 90.655 47.2952C90.6543 47.295 90.6537 47.2948 90.653 47.2945L77.2775 42.3144L76.8146 42.1421L76.4012 42.3984L64.453 49.8064C64.4524 49.8068 64.4518 49.8071 64.4512 49.8075C63.7389 50.2437 62.8127 50.2701 62.0812 49.8885C61.3642 49.5144 60.9854 48.825 61.0294 48.1461C61.0295 48.1458 61.0295 48.1455 61.0295 48.1451L61.9394 34.7356L61.9769 34.1825L61.5242 33.8503L50.163 25.5108L50.1625 25.5105C49.5424 25.0559 49.281 24.3402 49.4349 23.6658C49.5884 22.9935 50.1745 22.3925 51.0172 22.1925C51.0174 22.1924 51.0176 22.1924 51.0178 22.1923L64.9712 18.9161L65.47 18.799L65.6573 18.3249L70.6247 5.75328C70.625 5.75269 70.6252 5.7521 70.6254 5.75151C70.8984 5.07128 71.5886 4.54553 72.463 4.46171C73.3433 4.37731 74.1424 4.76479 74.551 5.37Z" fill="#F7FF05" stroke="#F7FF05" stroke-width="2"/>
</g>
<defs>
<clipPath id="clip0_64_28">
<rect width="55.9635" height="47.7273" fill="white" transform="matrix(0.884799 -0.465973 0.534814 0.844969 0 44.0774)"/>
</clipPath>
<clipPath id="clip1_64_28">
<rect width="56.5566" height="47.1666" fill="white" transform="matrix(0.943814 0.330477 -0.387878 0.921711 99.2949 14)"/>
</clipPath>
<clipPath id="clip2_64_28">
<rect width="57.1241" height="46.6182" fill="white" transform="matrix(0.995436 -0.0954356 0.114467 0.993427 43.907 6.19507)"/>
</clipPath>
</defs>
</svg>
